<svg xmlns="http://www.w3.org/2000/svg" viewBox="0 0 512 512">
  <defs>
    <linearGradient id="bg" x1="0%" y1="0%" x2="100%" y2="100%">
      <stop offset="0%" style="stop-color:#4f46e5"/>
      <stop offset="100%" style="stop-color:#7c3aed"/>
    </linearGradient>
  </defs>
  <rect width="512" height="512" rx="96" fill="url(#bg)"/>
  <path d="M256 120c-26.5 0-48 21.5-48 48v48c0 26.5 21.5 48 48 48s48-21.5 48-48v-48c0-26.5-21.5-48-48-48zm-96 96c-26.5 0-48 21.5-48 48v48c0 26.5 21.5 48 48 48s48-21.5 48-48v-48c0-26.5-21.5-48-48-48zm192 0c-26.5 0-48 21.5-48 48v48c0 26.5 21.5 48 48 48s48-21.5 48-48v-48c0-26.5-21.5-48-48-48zm-96 96c-53 0-96 43-96 96s43 96 96 96 96-43 96-96-43-96-96-96z" fill="white"/>
</svg>
